<mxfile host="app.diagrams.net" modified="2024-05-29T01:37:28.757Z" agent="Mozilla/5.0 (Macintosh; Intel Mac OS X 10_15_7) AppleWebKit/605.1.15 (KHTML, like Gecko) Version/17.5 Safari/605.1.15" etag="VO8dnOv7W3MeP5ajUItB" version="24.4.9" type="github" pages="2">
  <diagram name="Ecosystem" id="ZJ2hxQDpWpJ5bP6UpDXm">
    <mxGraphModel grid="1" page="1" gridSize="10" guides="1" tooltips="1" connect="1" arrows="1" fold="1" pageScale="1" pageWidth="850" pageHeight="1100" math="0" shadow="0">
      <root>
        <mxCell id="0" />
        <mxCell id="1" parent="0" />
        <mxCell id="JhRV-Fy7fuXpMnecIwgt-110" value="&lt;font style=&quot;font-size: 12px;&quot;&gt;Resume Ecosystem&lt;/font&gt;" style="swimlane;whiteSpace=wrap;html=1;" parent="1" vertex="1">
          <mxGeometry x="40" y="40" width="660" height="550" as="geometry" />
        </mxCell>
        <mxCell id="JhRV-Fy7fuXpMnecIwgt-4" value="LinkedIn" style="rounded=1;whiteSpace=wrap;html=1;" parent="JhRV-Fy7fuXpMnecIwgt-110" vertex="1">
          <mxGeometry x="40" y="210" width="120" height="40" as="geometry" />
        </mxCell>
        <mxCell id="JhRV-Fy7fuXpMnecIwgt-8" value="" style="endArrow=classic;html=1;rounded=0;exitX=0.5;exitY=0;exitDx=0;exitDy=0;entryX=0.5;entryY=1;entryDx=0;entryDy=0;" parent="JhRV-Fy7fuXpMnecIwgt-110" source="JhRV-Fy7fuXpMnecIwgt-4" target="JhRV-Fy7fuXpMnecIwgt-11" edge="1">
          <mxGeometry width="50" height="50" relative="1" as="geometry">
            <mxPoint x="340" y="220" as="sourcePoint" />
            <mxPoint x="160" y="90" as="targetPoint" />
          </mxGeometry>
        </mxCell>
        <mxCell id="JhRV-Fy7fuXpMnecIwgt-9" value="Raw HTML" style="edgeLabel;html=1;align=center;verticalAlign=middle;resizable=0;points=[];" parent="JhRV-Fy7fuXpMnecIwgt-8" vertex="1" connectable="0">
          <mxGeometry x="-0.0999" y="1" relative="1" as="geometry">
            <mxPoint as="offset" />
          </mxGeometry>
        </mxCell>
        <mxCell id="JhRV-Fy7fuXpMnecIwgt-11" value="Chrome Extension" style="rounded=1;whiteSpace=wrap;html=1;" parent="JhRV-Fy7fuXpMnecIwgt-110" vertex="1">
          <mxGeometry x="40" y="90" width="120" height="40" as="geometry" />
        </mxCell>
        <mxCell id="JhRV-Fy7fuXpMnecIwgt-21" value="Vercel" style="swimlane;whiteSpace=wrap;html=1;" parent="JhRV-Fy7fuXpMnecIwgt-110" vertex="1">
          <mxGeometry x="220" y="40" width="240" height="490" as="geometry">
            <mxRectangle x="220" y="40" width="80" height="30" as="alternateBounds" />
          </mxGeometry>
        </mxCell>
        <mxCell id="L4RTfrHgs8VyDjyBJn3I-2" value="ID" style="edgeStyle=orthogonalEdgeStyle;rounded=0;orthogonalLoop=1;jettySize=auto;html=1;exitX=0.75;exitY=0;exitDx=0;exitDy=0;entryX=0.75;entryY=1;entryDx=0;entryDy=0;" edge="1" parent="JhRV-Fy7fuXpMnecIwgt-21" source="JhRV-Fy7fuXpMnecIwgt-23" target="JhRV-Fy7fuXpMnecIwgt-26">
          <mxGeometry relative="1" as="geometry" />
        </mxCell>
        <mxCell id="JhRV-Fy7fuXpMnecIwgt-23" value="Postgres" style="rounded=1;whiteSpace=wrap;html=1;" parent="JhRV-Fy7fuXpMnecIwgt-21" vertex="1">
          <mxGeometry x="60" y="170" width="120" height="40" as="geometry" />
        </mxCell>
        <mxCell id="L4RTfrHgs8VyDjyBJn3I-1" style="edgeStyle=orthogonalEdgeStyle;rounded=0;orthogonalLoop=1;jettySize=auto;html=1;exitX=0.25;exitY=1;exitDx=0;exitDy=0;entryX=0.25;entryY=0;entryDx=0;entryDy=0;" edge="1" parent="JhRV-Fy7fuXpMnecIwgt-21" source="JhRV-Fy7fuXpMnecIwgt-26" target="JhRV-Fy7fuXpMnecIwgt-23">
          <mxGeometry relative="1" as="geometry" />
        </mxCell>
        <mxCell id="L4RTfrHgs8VyDjyBJn3I-6" value="Store" style="edgeLabel;html=1;align=center;verticalAlign=middle;resizable=0;points=[];" vertex="1" connectable="0" parent="L4RTfrHgs8VyDjyBJn3I-1">
          <mxGeometry x="-0.1167" y="-1" relative="1" as="geometry">
            <mxPoint y="4" as="offset" />
          </mxGeometry>
        </mxCell>
        <mxCell id="JhRV-Fy7fuXpMnecIwgt-26" value="&lt;span style=&quot;font-size: 12.000001px;&quot;&gt;Serverless Function&lt;/span&gt;" style="rounded=1;whiteSpace=wrap;html=1;" parent="JhRV-Fy7fuXpMnecIwgt-21" vertex="1">
          <mxGeometry x="60" y="50" width="120" height="40" as="geometry" />
        </mxCell>
        <mxCell id="JhRV-Fy7fuXpMnecIwgt-25" value="Blob" style="rounded=1;whiteSpace=wrap;html=1;" parent="JhRV-Fy7fuXpMnecIwgt-21" vertex="1">
          <mxGeometry x="60" y="410" width="120" height="40" as="geometry" />
        </mxCell>
        <mxCell id="L4RTfrHgs8VyDjyBJn3I-3" style="edgeStyle=orthogonalEdgeStyle;rounded=0;orthogonalLoop=1;jettySize=auto;html=1;entryX=0.5;entryY=1;entryDx=0;entryDy=0;" edge="1" parent="JhRV-Fy7fuXpMnecIwgt-21" source="JhRV-Fy7fuXpMnecIwgt-96" target="JhRV-Fy7fuXpMnecIwgt-23">
          <mxGeometry relative="1" as="geometry" />
        </mxCell>
        <mxCell id="L4RTfrHgs8VyDjyBJn3I-4" value="View JSON" style="edgeLabel;html=1;align=center;verticalAlign=middle;resizable=0;points=[];" vertex="1" connectable="0" parent="L4RTfrHgs8VyDjyBJn3I-3">
          <mxGeometry x="-0.05" relative="1" as="geometry">
            <mxPoint as="offset" />
          </mxGeometry>
        </mxCell>
        <mxCell id="JhRV-Fy7fuXpMnecIwgt-96" value="Frontend (SSR)" style="rounded=1;whiteSpace=wrap;html=1;" parent="JhRV-Fy7fuXpMnecIwgt-21" vertex="1">
          <mxGeometry x="60" y="290" width="120" height="40" as="geometry" />
        </mxCell>
        <mxCell id="JhRV-Fy7fuXpMnecIwgt-103" value="Get Artifacts" style="endArrow=classic;html=1;rounded=0;exitX=0.5;exitY=1;exitDx=0;exitDy=0;entryX=0.5;entryY=0;entryDx=0;entryDy=0;" parent="JhRV-Fy7fuXpMnecIwgt-21" source="JhRV-Fy7fuXpMnecIwgt-96" target="JhRV-Fy7fuXpMnecIwgt-25" edge="1">
          <mxGeometry width="50" height="50" relative="1" as="geometry">
            <mxPoint x="20" y="240" as="sourcePoint" />
            <mxPoint x="70" y="190" as="targetPoint" />
          </mxGeometry>
        </mxCell>
        <mxCell id="JhRV-Fy7fuXpMnecIwgt-108" style="edgeStyle=orthogonalEdgeStyle;rounded=0;orthogonalLoop=1;jettySize=auto;html=1;entryX=1;entryY=0.5;entryDx=0;entryDy=0;" parent="JhRV-Fy7fuXpMnecIwgt-110" source="JhRV-Fy7fuXpMnecIwgt-27" target="JhRV-Fy7fuXpMnecIwgt-25" edge="1">
          <mxGeometry relative="1" as="geometry">
            <mxPoint x="580" y="480" as="targetPoint" />
            <Array as="points">
              <mxPoint x="580" y="470" />
            </Array>
          </mxGeometry>
        </mxCell>
        <mxCell id="JhRV-Fy7fuXpMnecIwgt-109" value="Upload Artifact" style="edgeLabel;html=1;align=center;verticalAlign=middle;resizable=0;points=[];" parent="JhRV-Fy7fuXpMnecIwgt-108" vertex="1" connectable="0">
          <mxGeometry x="0.3117" y="-2" relative="1" as="geometry">
            <mxPoint x="1" y="-238" as="offset" />
          </mxGeometry>
        </mxCell>
        <mxCell id="L4RTfrHgs8VyDjyBJn3I-9" value="&lt;div style=&quot;border-color: var(--border-color); font-variant-ligatures: normal; orphans: 2; widows: 2; text-decoration-thickness: initial; text-decoration-style: initial; text-decoration-color: initial;&quot;&gt;GET /data/:id&lt;br&gt;&lt;/div&gt;" style="edgeStyle=orthogonalEdgeStyle;rounded=0;orthogonalLoop=1;jettySize=auto;html=1;exitX=0;exitY=0.75;exitDx=0;exitDy=0;entryX=1;entryY=0.75;entryDx=0;entryDy=0;" edge="1" parent="JhRV-Fy7fuXpMnecIwgt-110" source="JhRV-Fy7fuXpMnecIwgt-27" target="JhRV-Fy7fuXpMnecIwgt-26">
          <mxGeometry relative="1" as="geometry">
            <mxPoint as="offset" />
          </mxGeometry>
        </mxCell>
        <mxCell id="JhRV-Fy7fuXpMnecIwgt-27" value="GitHub Actions" style="rounded=1;whiteSpace=wrap;html=1;" parent="JhRV-Fy7fuXpMnecIwgt-110" vertex="1">
          <mxGeometry x="520" y="90" width="120" height="40" as="geometry" />
        </mxCell>
        <mxCell id="JhRV-Fy7fuXpMnecIwgt-89" value="&lt;h1 style=&quot;margin-top: 0px;&quot;&gt;Resume Ecosystem&lt;/h1&gt;&lt;p&gt;&lt;font style=&quot;font-size: 14px;&quot;&gt;API route: /api/resume&lt;/font&gt;&lt;/p&gt;" style="text;html=1;whiteSpace=wrap;overflow=hidden;rounded=0;" parent="JhRV-Fy7fuXpMnecIwgt-110" vertex="1">
          <mxGeometry x="40" y="340" width="150" height="110" as="geometry" />
        </mxCell>
        <mxCell id="L4RTfrHgs8VyDjyBJn3I-7" style="edgeStyle=orthogonalEdgeStyle;rounded=0;orthogonalLoop=1;jettySize=auto;html=1;exitX=1;exitY=0.25;exitDx=0;exitDy=0;entryX=0;entryY=0.25;entryDx=0;entryDy=0;" edge="1" parent="JhRV-Fy7fuXpMnecIwgt-110" source="JhRV-Fy7fuXpMnecIwgt-26" target="JhRV-Fy7fuXpMnecIwgt-27">
          <mxGeometry relative="1" as="geometry" />
        </mxCell>
        <mxCell id="L4RTfrHgs8VyDjyBJn3I-8" value="Trigger with ID" style="edgeLabel;html=1;align=center;verticalAlign=middle;resizable=0;points=[];" vertex="1" connectable="0" parent="L4RTfrHgs8VyDjyBJn3I-7">
          <mxGeometry x="-0.2222" relative="1" as="geometry">
            <mxPoint x="13" y="-1" as="offset" />
          </mxGeometry>
        </mxCell>
        <mxCell id="L4RTfrHgs8VyDjyBJn3I-12" style="edgeStyle=orthogonalEdgeStyle;rounded=0;orthogonalLoop=1;jettySize=auto;html=1;exitX=1;exitY=0.5;exitDx=0;exitDy=0;entryX=0;entryY=0.5;entryDx=0;entryDy=0;" edge="1" parent="JhRV-Fy7fuXpMnecIwgt-110" source="JhRV-Fy7fuXpMnecIwgt-11" target="JhRV-Fy7fuXpMnecIwgt-26">
          <mxGeometry relative="1" as="geometry">
            <mxPoint x="410" y="110" as="sourcePoint" />
            <mxPoint x="260" y="110" as="targetPoint" />
          </mxGeometry>
        </mxCell>
        <mxCell id="L4RTfrHgs8VyDjyBJn3I-13" value="POST /build" style="edgeLabel;html=1;align=center;verticalAlign=middle;resizable=0;points=[];" vertex="1" connectable="0" parent="L4RTfrHgs8VyDjyBJn3I-12">
          <mxGeometry x="-0.2222" relative="1" as="geometry">
            <mxPoint x="13" y="-1" as="offset" />
          </mxGeometry>
        </mxCell>
        <mxCell id="2" value="Text" style="text;strokeColor=none;align=center;fillColor=none;html=1;verticalAlign=middle;whiteSpace=wrap;rounded=0;" vertex="1" parent="1">
          <mxGeometry x="640" y="400" width="60" height="30" as="geometry" />
        </mxCell>
      </root>
    </mxGraphModel>
  </diagram>
  <diagram id="kcF_4Qz1G0lQpnBHhmPi" name="Monorepo">
    <mxGraphModel dx="577" dy="1059" grid="1" gridSize="10" guides="1" tooltips="1" connect="1" arrows="1" fold="1" page="1" pageScale="1" pageWidth="850" pageHeight="1100" math="0" shadow="0">
      <root>
        <mxCell id="0" />
        <mxCell id="1" parent="0" />
        <mxCell id="ASdGKh2aUFNNd5XFepa3-1" value="Monorepo" style="swimlane;whiteSpace=wrap;html=1;" vertex="1" parent="1">
          <mxGeometry x="40" y="40" width="520" height="320" as="geometry" />
        </mxCell>
        <mxCell id="D1ZDg2mw5FMtQj-lg4mV-1" value="root" style="rounded=1;whiteSpace=wrap;html=1;" vertex="1" parent="ASdGKh2aUFNNd5XFepa3-1">
          <mxGeometry x="200" y="40" width="120" height="40" as="geometry" />
        </mxCell>
        <mxCell id="P9RgKcAM5GwO_uJv_BXX-1" value="shared" style="rounded=1;whiteSpace=wrap;html=1;" vertex="1" parent="ASdGKh2aUFNNd5XFepa3-1">
          <mxGeometry x="40" y="120" width="120" height="40" as="geometry" />
        </mxCell>
        <mxCell id="P9RgKcAM5GwO_uJv_BXX-2" value="frontend" style="rounded=1;whiteSpace=wrap;html=1;" vertex="1" parent="ASdGKh2aUFNNd5XFepa3-1">
          <mxGeometry x="40" y="190" width="120" height="40" as="geometry" />
        </mxCell>
        <mxCell id="P9RgKcAM5GwO_uJv_BXX-3" value="extension" style="rounded=1;whiteSpace=wrap;html=1;" vertex="1" parent="ASdGKh2aUFNNd5XFepa3-1">
          <mxGeometry x="200" y="140" width="120" height="40" as="geometry" />
        </mxCell>
        <mxCell id="P9RgKcAM5GwO_uJv_BXX-5" value="actions" style="swimlane;whiteSpace=wrap;html=1;" vertex="1" parent="ASdGKh2aUFNNd5XFepa3-1">
          <mxGeometry x="280" y="80" width="200" height="200" as="geometry" />
        </mxCell>
      </root>
    </mxGraphModel>
  </diagram>
</mxfile>
